<svg width="236" height="209" viewBox="0 0 236 209" fill="none" xmlns="http://www.w3.org/2000/svg">
<path d="M50 12.2V23.9L46.9 24.25C32.3 25.8 18.65 34.1 12.05 45.4C7.9 52.55 6.45 58.3 6.45 67.75C6.45 80.5 9.35 88.8 16.6 96.7C23.05 103.8 33.45 109.9 51.5 117.25C62.1 121.55 65.7 123.45 69.8 126.95C75.2 131.5 77.45 137.35 76.85 145.55C76.05 157.45 66 164.7 52.6 162.95C45.9 162.1 41.7 160.2 38.15 156.35C34.25 152.15 32.25 146.95 31.7 139.6L31.35 135.5H15.75H0.0999985L0.349998 138.85C1.25 153.4 5.4 163.85 13.5 172.05C20.95 179.6 31.6 184.65 43.95 186.55L48 187.15V198.1V209H56.25H64.5V198.05V187.1L67.4 186.8C79.4 185.35 92.75 178.6 99.15 170.7C105.4 162.95 108.1 154.7 108.1 143.3C108.05 126.45 102.2 115.55 88.05 106.1C83.2 102.85 71.85 97.1 65.25 94.5C63.05 93.65 58.05 91.35 54.1 89.45C48.1 86.5 46.45 85.4 43.55 82.6C38.8 77.95 37.8 75.3 37.8 67.5C37.8 62.7 38 61.25 39 58.8C40.45 55 43.75 51.45 47.45 49.65C50.05 48.35 50.7 48.25 56.25 48.25C61.7 48.25 62.5 48.35 65.05 49.55C66.6 50.3 68.75 51.7 69.85 52.7C73.75 56.2 76.95 64.75 77 71.6V74.5H92.75H108.5L108.2 70.85C107.1 56.5 102.7 45.65 94.7 37.4C91.9 34.5 85.45 30.1 81.35 28.3C77.75 26.75 72.05 25 69 24.55L66.75 24.25L66.6 12.35L66.5 0.499982H58.25H50V12.2Z" fill="#099268"/>
<path d="M177 12.2V23.9L174.15 24.2C165.45 25.25 154.65 29.65 148.5 34.65C138.6 42.7 133.5 54.05 133.5 67.9C133.5 83.45 138.95 94.4 151 103.1C156.3 106.9 169.2 113.5 179.25 117.5C188.8 121.3 193.95 124.15 197.7 127.55C201.65 131.2 203.25 134.35 203.95 139.7C205.55 152.65 199.2 161.45 187.2 162.9C182.55 163.45 177.15 162.9 173.15 161.5C165.45 158.8 160 151.15 159.2 141.85C159.05 140.15 158.85 138 158.7 137.15L158.45 135.5H143H127.5V138.6C127.55 145.9 129.75 155.05 133.05 161.65C138.2 171.8 148.15 180.05 160 183.9C163.55 185.1 172.1 187 173.9 187H175V198V209H183.5H192V198.1V187.2L195.65 186.6C213.75 183.8 226.6 174.5 232.5 160.15C237.7 147.35 235.8 127.9 228.4 118.35C225.75 114.9 222.4 111.35 219.8 109.3C214.05 104.75 203.6 99.05 192.95 94.7C175.95 87.75 168.9 83.05 166.25 76.65C165.05 73.85 164.55 68.4 165.05 64.15C166.3 54 172.15 48.55 182.4 48.1C187.55 47.85 190.5 48.45 193.85 50.4C196.3 51.75 199.65 55.4 201.05 58.05C202.45 60.8 203.95 66.65 204.3 70.8L204.65 74.5H220.05H235.5V72.35C235.5 59.75 230.1 45.7 222.1 37.6C216.05 31.45 206.5 26.5 197.5 24.8L194.25 24.2L194.1 12.35L194 0.499993H185.5H177V12.2Z" fill="#099268"/>
</svg>
